/* XPM */
static char *_9d8724677424720b0cd3fcbf6073a31Az8z7wa3FcAnRYLk[] = {
/* columns rows colors chars-per-pixel */
"64 64 256 2 ",
"   c #020201",
".  c #060602",
"X  c #0B090D",
"o  c #1C1B14",
"O  c #16352C",
"+  c #183A37",
"@  c #571C15",
"#  c #721206",
"$  c #2C6C1C",
"%  c #35741B",
"&  c #144A32",
"*  c #274B35",
"=  c #1F6A21",
"-  c #2F6D24",
";  c #287827",
":  c #327624",
">  c #387626",
",  c #327A26",
"<  c #3B7A23",
"1  c #38772E",
"2  c #387A2A",
"3  c #297935",
"4  c #327C32",
"5  c #387D32",
"6  c #327E38",
"7  c #387F38",
"8  c #43781C",
"9  c #655B27",
"0  c #674E32",
"q  c #427A28",
"w  c #407E33",
"e  c #487B33",
"r  c #497F38",
"t  c #527E37",
"y  c #152952",
"u  c #2F3751",
"i  c #1A4746",
"p  c #1D5154",
"a  c #274748",
"s  c #244B4D",
"d  c #374C4E",
"f  c #26544B",
"g  c #294D53",
"h  c #2B5354",
"j  c #295457",
"k  c #2C5B5B",
"l  c #345658",
"z  c #325C5D",
"x  c #326C55",
"c  c #325A63",
"v  c #106663",
"b  c #2C6362",
"n  c #2F6F6F",
"m  c #346363",
"M  c #376869",
"N  c #505551",
"B  c #6A524B",
"V  c #597644",
"C  c #6B684E",
"Z  c #4D526C",
"A  c #695E66",
"S  c #506A6F",
"D  c #716F71",
"F  c #9E151C",
"G  c #8E3112",
"H  c #B02D04",
"J  c #CD0505",
"K  c #D3260E",
"L  c #8E710B",
"P  c #885736",
"I  c #AB5625",
"U  c #907731",
"Y  c #DF541F",
"T  c #F44F07",
"R  c #916C4F",
"E  c #98645D",
"W  c #907268",
"Q  c #887979",
"!  c #977977",
"~  c #AB7075",
"^  c #34822B",
"/  c #288532",
"(  c #328532",
")  c #388332",
"_  c #368837",
"`  c #388438",
"'  c #388C38",
"]  c #46832A",
"[  c #548626",
"{  c #408332",
"}  c #498432",
"|  c #4B8A32",
" . c #428538",
".. c #498638",
"X. c #428B38",
"o. c #498B3B",
"O. c #588C33",
"+. c #518538",
"@. c #518C3B",
"#. c #47913C",
"$. c #599339",
"%. c #629438",
"&. c #348B42",
"*. c #388942",
"=. c #428641",
"-. c #498640",
";. c #428C40",
":. c #4B8D40",
">. c #408D49",
",. c #4B8D49",
"<. c #538742",
"1. c #598641",
"2. c #538E41",
"3. c #5C8D44",
"4. c #538E49",
"5. c #459646",
"6. c #4B9342",
"7. c #4B9349",
"8. c #539342",
"9. c #5C9442",
"0. c #5B9B44",
"q. c #539549",
"w. c #5C964C",
"e. c #559A4B",
"r. c #5C9B4B",
"t. c #4A9353",
"y. c #539953",
"u. c #589857",
"i. c #5C9D54",
"p. c #658F4A",
"a. c #62954C",
"s. c #659948",
"d. c #7B994D",
"f. c #629E54",
"g. c #699A59",
"h. c #779D5A",
"j. c #5CA356",
"k. c #66A24B",
"l. c #66A659",
"z. c #6AA55C",
"x. c #7CAC56",
"c. c #75A95A",
"v. c #669C62",
"b. c #719C63",
"n. c #788D72",
"m. c #5FAA69",
"M. c #6AA964",
"N. c #78A866",
"B. c #78B367",
"V. c #70AF70",
"C. c #7EB974",
"Z. c #988813",
"A. c #AD910D",
"S. c #B89A03",
"D. c #A99517",
"F. c #BBA703",
"G. c #B0A813",
"H. c #938F36",
"J. c #B69C24",
"K. c #AD9630",
"L. c #B2AD32",
"P. c #CA890F",
"I. c #C79A05",
"U. c #D69C03",
"Y. c #C89A15",
"T. c #D69917",
"R. c #E49D10",
"E. c #C4A401",
"W. c #CCA401",
"Q. c #C8A707",
"!. c #CCAB01",
"~. c #D4A401",
"^. c #D4AB01",
"/. c #D8A908",
"(. c #CAB403",
"). c #D8B604",
"_. c #C9A615",
"`. c #D7A716",
"'. c #C8B619",
"]. c #D9B717",
"[. c #E6A803",
"{. c #E6B903",
"}. c #F8B904",
"|. c #E6B815",
" X c #F4B215",
".X c #C99A28",
"XX c #E98726",
"oX c #C7A825",
"OX c #D5A627",
"+X c #C9B230",
"@X c #E8B229",
"#X c #DAC501",
"$X c #D6C312",
"%X c #E9C504",
"&X c #FDC401",
"*X c #F5CB02",
"=X c #FDCC01",
"-X c #F8C608",
";X c #E9D10F",
":X c #FDD301",
">X c #FAD602",
",X c #FBC816",
"<X c #FDD419",
"1X c #FDE306",
"2X c #D7C72A",
"3X c #F5CA28",
"4X c #919550",
"5X c #A8974E",
"6X c #90A553",
"7X c #B1AF4E",
"8X c #918D6E",
"9X c #A88E6B",
"0X c #85A566",
"qX c #95AF6E",
"wX c #87AD78",
"eX c #88B475",
"rX c #ABB370",
"tX c #C9974A",
"yX c #CAB648",
"uX c #CCB16C",
"iX c #88C17A",
"pX c #D6C55E",
"aX c #E4C74F",
"sX c #5E5391",
"dX c #727A8C",
"fX c #91788A",
"gX c #A27489",
"hX c #768989",
"jX c #778E96",
"kX c #7C95A7",
"lX c #7894AF",
"zX c #79A3A6",
"xX c #748BC8",
"cX c #888487",
"vX c #8E8D93",
"bX c #A59D99",
"nX c #8FB08D",
"mX c #AAB788",
"MX c #8796A8",
"NX c #8D90AF",
"BX c #8799B7",
"VX c #8EA4B0",
"CX c #ABB7B1",
"ZX c #C7AF8C",
"AX c #97C28F",
"SX c #ACC793",
"DX c #A9C8A4",
"FX c #DCD09B",
"GX c #E5CF94",
"HX c #D4C7AB",
"JX c #E9CEB5",
"KX c #8C92C8",
"LX c #8AA5C6",
"PX c #DFD3D6",
"IX c #F7EFD4",
"UX c #F9F6F8",
/* pixels */
"$.c.k.< 3.z.5 w B.5 j.' 4 y.5 w. .: :.z.q.5 :.f.7.)  .7 -.` q.l.` 4 #.o.8.k.-.,.w.,.t.*.6 i.C.X.| z.l.q 3.M.7 V B.w f.` 4 i.w q.",
"^ | z.@.w a.M. .| 2 z.e.y.M.:.2...7.X.:.1 o.X.:.s.' { o.s.....< X.4 ) 2.qX+X|.;X;X(.F.G.K.rX0X4.^ o.z.$.7 f.M.-.+.5 M.q.q.M.:.@.",
"` ;.8.o.g.i.z. .} s.z.6.5 { w } l.5 $ e.{ q. .{ { ] 8.9.s.) [ ] M.N.L.*X>X:X&X}.&X=X*X).E.I.J.J.7X` q...z.a.z.{ } w.c.o.5  .< } ",
";.X.` X.B...q.w 9.c.r.^ 2 { 2.a.i.: X.B.) -.e.2 2 2 @.6.7.5 9.qX{.%X>X>X>X:X,X,X X<X<X X[././.~.I.A.g. .B.{ 4.w s.c.9.7 { 2 @.k.",
"' ; q.7.X.$ z.w s.s.w { r.4.2.3.: q.C.i.5 1 r.5 ;.( 6 6 >.4.7X%X=X=X=X=X=X&X*X:X:X:X*X-X).^.Q./.T.^.S.6X .$ z.{ s.w.2 o.i.o.@.9.",
":.i.z. . .6.M. .| | { w.q.w { 9.2 e.j.2 j.)  .q.' *.>.*.b.7X*X>X-X-X-X-X%X).).).^.^.).%X|.(.E.E.`./.{.S.D.6.M.e ..}  .e.q.2 ] 8.",
"s.0Xl.% r.M.o.:.) < :.i.=.w 8.B.l.4 : o.B.o. .q.2 c.nXqX+X^.%X*X>X*X/.`.Y.I.I.!.Y.Y.Y._.E.W.(.).!.Y.T.{.(.A.5.,.} 5 :.y.;._ e.B.",
"%.q O.) 2 X.5 -.l.5 ` *.`  .7 o.iX> q.C.8.5 q. .s.SX+X;X,X|./.^.].Q.W.).%X,X,X3X:X-X-X[.I.Q.T._.(.~./.R.U.F.6X;.l.{  .` 6 o.) ' ",
"%.] q s.} } o.l.%.4 *.$.[ M.V.q ..' 2.+./ 5.0X3.eXG.2XuXaX;X>XR.oX|.&X>X=X=X1X%X{.*X:X&X-XT.S.Q.!.I.`.`.Q.`..XoXO.( &.$.q m.m.] ",
"O.$.9.s.$.8.| } { } l.l.w 2.f.=.t o./ / k.0X9.; q.nXV.5 X.HXpXL.I.1X1X%XaXuXuXGXIXJXFXaX%X}.I.OX^.^.~.^.E.F.E.S. .@.f.M.) 9.f.6.",
" .e.q.{ o.o.X.| / [ O.*.6 8 [ &.5.N.l.( e ;.( p.DXAX=.V.eXV.C.nXaX3X+X7XnXg.z.l.wXs. .f.SX%XI.`.^.^.^.J.5X8X9X4Xg.[ [ *.; q [ ` ",
";  .=., 8.2 } l.;...q ) *.2 o.u.; 3.eXf.g.V.5.0XeXl.u.AXDX} N.nXrXuXIXDXV.g.g.zXAXz.#.l.wXoX^./.T.~.S.5XNXKXKXBX8Xg.q ` 6  .X.u.",
"6 ` X.` l.o.| 8.9.5.#.s.9.` *.eX0Xf.0X5XL.J.G.J.rXnXeXwXz.g.N.SXS.uXUXnX4.C.e.y.N.+.*.eXwXK.`./.T.^.F.4XBXlXzXnXvXjXV.$.r.*.>.N.",
"7.7. .: q.r.o.> O.&._ O.%.t.*.6XoXQ.I.~././.`.T.E.F.Z.L pXmXmX+X!.yXIXUXnXDXPXPXp.3.*.7.mXoX/.^.~.).F.8XLXzXzXkXBXlXjXvX%.&.` O.",
"r.9.{ 2 5 o. .' } ) `  .{ ' 6X(.>X>X;X*X-X{.%X{.`.`.{.E.^.Q.I.S./.A.uXUXUXUXCXo rXw.t.t.uX_.I.^.W.).G.vXKXlXlXKXBXlXlXBXhX .=.2 ",
"| } | l.{ 5  .j.' $.k.*./ ] 6X7X6X6X7XyX@X{.*X>X<X}.,X|._.OXU.~././.D.rXUXUXUXAXh.8.*.rXS.`.R.~.Y._.5XvXLXkXn.NXzXzXMXkXMXnXa.t.",
"&.3 5.2.% $.c.O.; *. .2 a.9.a.5 w.9.9., ' q.qX7X}.-X>X-X|.|.|.{.~._.oXZ.7XFXPXUXPXZX+XF.#X<X(.J.{.A.8XxXhXnXMXhXLXjXhXMXVXdXa.< ",
">.3 =.8.w w @.} *.4 ` 2 2.@.) q.% r.k.X.7 e.$.z.6XoX$X%X#X%X#X).3X[.U.~./.I.W.].).*X}.}.,X=X=X[.W.9XKXLXzXBXxXBXLXkXkXBXBXjXg.8.",
"3 i.l.2.{ o... .;  .M.| : q.=.V.s.:.2 ` ; 7.M.wXY.~./.R.OXT.T.T._.S.S.Q.Q.~.`.|.{.).}.<X&X}.<X[.Y.8XBXzXVXLXjXMXMXlXlXlXlXdXnXM.",
"> M.l.) o.i.,.` o.9.s.{ { B.,.-.c.o.2.i.u.g.6XS.!.!.!.Q.W.W./.^.Q.Q./._.~.I.].I.@X`.;X>X*X<X]._.S.D.L.8XKXcXH.D.8X8XlXBXlXlXnX*.",
"X.6.> : w.w.7 6 q.o.: { :.w.7 3 } ..V.f.0X'.*X-X,X|.#X{.{.).).@X X[.}.}.,X}.,X<X*X1X>X~.{.,X{.).^.W.(.J.8XR F.W.J.8XMXzXMXMXjX3 ",
"5 o.o.} ..o. .' ; 7.} ) w -.q.=.w.2 i.y.L.1X=X,X,X,X,X-X:X&X*X-X:X*X>X{.;X;X2X3XGXFXJXUXUXJXIXGX|.`.U./.`.I.P.P.!.5XkXzXhXvXnX6.",
"5 7.M.l.2 ..w. .6 5.o.$ @.B.z. .eX) ..7.AX7X+X].(.].aXuXGXGXFXB.N.M.g.mXeXnXKXKXUXNXdXVXZ O n.A U yXU.U.*X).Y.P.Q.4XxXzXhXNXM.;.",
"y.4 9.M.8.o.w.` ` ` z.) w.a.w  .M.@.2 ; @.t.N.+X%X3X+X2X$X2XaX6X> @.@.y.SXCX.           X X X X   '.).P.|.;XF.].W.W xXlXnXnXw r ",
"0Xj.; @.e : , ..l.` 7.4 ,.7 ; l.j.$ g.` = g.eX' ..j.rXqX6X7XL.L.6X6X0XqXwXmXCX+     X . . .   . X G }.Y.G.'.].'.jXVXMXD VX' : k.",
"| X.) r f.( 6.9.2.1 w 7 i.y.5 } / a.N.=.5.h.p.' 4.3 +./  .a.' ( 9.=.v.4X4XrXHXPXB o .   . .   X . 9 :XA.4X8XfXfXhXdXhXCXl.#.2 o.",
"< ;.;.6.M.*.X.a.} r ..f.b.w.} 9.6 C.w.7 6.@.q ' j._ 1.' ) 3.' -.9. .( ` M.qXH.tXC .   X X . . X . L *XZ.nXnXnXBXCXCXN.j.N.1.} w.",
"r j.&.4.4.' ; 1.8.-.` N.f.o.X.l.: 8.2  .> q $.r.2.' g.7.7 <.( #.9.2.6 3 q.[ SXuXK.o   X X . . . X Z./.nXM.e.+.3.:.:.V b.b.} 5.i.",
"e y.; 5 :._ ; <.q.) - 7.=.=.{ X.o.' 5 z.o.{ 8.8.w 3 s.5 4 s.*.| O.i.( 5 ] ] 0XR H F # # F # o   . F.Q.u.=. .- @.;.' ; t ,.w >.( ",
"+.' 3 1 f.6 4 $.^ )  .` , X.X.^ w.7.( w.l.^ ; ....; +.; : g.#.+.8 2.6 6.{ s.P J J J J J J J F X o (.L._ i.5  .2.) ( 6 =.7 7 X.( ",
"s.' ( +.g.4 ' p.X.) l.o.4  .o.0.r / 3 w 9.' / g.3.' s.` ; $.X.3.q  .6 7.$.0X# J J K F F J J J @ 0 _.bXX.l.7 X.@.o.) e.e.) 1 X.r.",
"p.X.; a.<.( ) s.c.% r.4.2.5 { f.<.3 *.o.1.' _ 1.s.( p.X.' p.` p.x.o.X.' $.8 b.W H # . @ J J J J L !.b.e.,.X.` 8.c.q 8.7.` w } s.",
"3.w @...$ 2.N.> { ) 6.: ..-. .q.; g.0X' X.s.> / 8.6.=.` ` ` 5.:  .N.V $ y./ 5.nX7XvXu C G K F K [.5X+.+., 8.f.) o.: X.; X.6.o.6.",
"` X.q.;. .w.j.o.o.8.i.{ :.:.7 w 5.t s.X.5.N.c./ {  . .-.` 4 )  .6 w r a.M.4XG.J.L.pXrXIXPXJXtXS./.Z.mXv.#.k.i.X.#.| l.X.X.} X.X.",
"` j.7.X.7.X.; 4 8.o.,.1 q.i.:.4 ;.} p.4  .1.0X' q 9.w.w e 6.y.X./ , 6.z.i.G.).,X X X[.|.D.oX|./.I.].D.C D nX-.4 6.X.0.5 6.e.:.7 ",
"5 ' ) 5 ;.X.5 6.5  .o.: -.w.q.X.; z.M.,.M.e 3.` ..l.q.1 ..z.f.w 5. .;.o.1  .qX5X=X*X%X>X*X}.{.(.W.~.I.K.d o jX>.{ { X.: o.i.w. .",
"o.1 1 ....4.w.i.: @.i.5  .7 ;.=.' l.a., j.t 3.( @.' ) o.y.6.4 4 c.w...:.q.o., y.#X;X;X#X<X,X`.(./.~.~.F.4XS Z S CXV.e.`  .` q.` ",
"z...4.a.o.2.w.r } w.w. .q.=.6.> 5. .<.; , <.N.;. .o.X.7.i.( ; 4 a.N.g.;.M.B.' &.qX X1X-X3X,X^.U.~.Q.`.S.H.D u g a S CXj.6. .o., ",
"8.{ o.q. .o.4.w 2.9.5 2 w.6.7., ( +.N.i.6.h.c._ 4.l.9.| 8.q.g.M.e d.Z._ 4.N./ ( w.7X}.:X&X>X*X X^.Q.oXK.W vXd f l O + D nX .q.4 ",
"` ) `  .) ) ` ` X.3.{ > ( ; ;.;.=.h.h.; 4 w.1 ' N.f.q % 3.N.h.qXf.g.Q.H.-.3.- j.2.n.Z.3X&X:X=X>X~.!.D.W fXgXN f i m N + S CX:.X.",
"O.s...8.o.{ k.O.' : X.q.5 > @...9.o.) 6.| w.{ ,... .6.4 5 ,.(.R.7X6XOX(.d...3.eX' Z y L >X:X&X;X&XA.U ! vXcXN * g j l h a l CX..",
"9.| w  .X.o.w.$.q.` ,.i.q...8.f.@.) ; X.9.B.f.5 ` -.:. .o.i.(.}.+XA.A.I.*XS.wXp. .o p sX~ @X-X;X.XH.~ gXcXfXA f c i i m l + S DX",
"l.2.w.w w e.q | o.w 5 q.w. .5 :.9...) @.r w.q.X.5 q.:.:.7.i.$X:XY.%XS.9XtX3XA.4Xb.o & C W 8X.XtX! hXgXgX! ! A p j s i l h u d S ",
"o.{ M. . .M.{ w.s...% 5 7.` = _ 3.) X.l...- ..q.6 7.=.:.:.<.L.>XmX7X)..XZXuX3X[.G.9 a S fXE I I ~ dXvXgXW ! A j s c g a f c l a ",
"` { B...4.C.{ o.z.k. .: :.;.` 7.@.: ; i.g.3.w.7.7 =.: ;.8.p.L.].CXrX^.1XE.K.J.E.G.[.U sXdXI T T Y R ! gXQ Q A l c j s s l l f j ",
"..,.u.{ w.M.5 : r.l.:.5 e.q. ...$.$.; : 8.2.r.` q.o.5 :.s.0XL._.qXZ.K.rXaX/._.A.+X[.#X9 Q I T T H P W Q fXQ A z M c s g h g f z ",
"` -.< { l.@.=.7.7 -. .X.i.o.5 { 9.z.) ; ..< o. .$.2.9.o.y.7X).|. X).5XnXeX{.~.OX).P.(.E.9XR H T H 0 Q Q D ! D b M M c i s j h g ",
";.e.: $.0.$ X.V.y.o.7 X.q.o.} w.2 8.2 w N.w ..=.8 o.l.) 2.).%X}.A.|.*X/.5XE.^.`.U.^.G.R.I.C ~ T P W cX! W gXD v n M c j j k g g ",
"$.x.z.< o.g.)  .B.1 l.5 4 7. .w.X., 6.z.9.) @.l.7.: ` u.7X<X@X>XF.S.qX(.,X-XW.F.~.!.~./.E.K.E T F R ~ fXcX9XB n b k k k s h z g ",
"w | z.o.w u.M...a.w z.q.y.f.o. .X.@.` o.2 o.{ @.f.{  .N.7X-X@X>XT.A.b.w.0X_.,X{.E.E.S.@XI.S.Y Y K P 8XcXgXvXN n b k m z g h l g ",
") =.$.o.l.i.z...q s.M...{ { { @.l.) $ e.) q. .w | q $.eX2X{.,X*XXXK.N.0.d.S.OX`./.).Q._.Y.E.P.Y T G D 8X~ fXb x b c m m h g h g ",
";. .` X.B...q.w s.c.f.e 5 w o.s.j.> *.B. ...r.7 ) , ,.N.+X-X-X{.I.+XF.J.J.S.8XwX`.^.Q.I.`.E.[.Y T H B 8X~ dXb m b m m m k h h g ",
"*.: 7.e.:.$ z.5 s.k.` -.r.9.o.$.: 4.C.i.1 1 e.5 5.6 ` u.L.<X=X-X#XS.W.U.U.H.:.v.pX).I.|.E.Q.~.D.Y T H W fXD l S M M m z j h h h ",
"X.u.z...:.:.z.w q { 5 e.8.o...s.1 4.i.1 i.(  .7.*.` *.t.6X-X:X,X#XY.@X`.I.qX4.y.qX/.%X/.I./.!.Z.G Y F E vXD l M M M m k z k h j ",
"s.B.f.% r.z.:.=.o._  .j.(  .o.N.M.) 1 4.B.=. .y.2 #.j.{ b.*X=X,X XOXT.S.F.N.X.j.cX9 ;XS.U.[.OXC 0 0 G P 9XC S n b M b k M z g j ",
"$.] O.) q X.1 :.j.( ; >.4 ;.{ @.eX: 4.C.:.` q.` @.9.s.] c.{.:X,X>X{.U.OXS.f.` { x u J.;XR.R.L N B d B G E Z c n x n b k M m s h ",
"$.} ] s...q ..h.%.4 ` O.+.M.V.: o.' +.+./ 5.0X3.+.X.` *.wX6X,X=X3X[.^..X5X7 y.v.d i * 4X5XP 0 N 0 B N d d S M b M m c b M m j g ",
"@.9.w.w.8.9...} X.| l.j.X.8.l.*.+.o./ / s.N.2.: 8.q.7 ; 4.qX2X=X>X:X^.L 9XM.nXS y + * t E E 0 d B 0 N a d l m M M M k b M m j j ",
"} w.e.{ o.o...2.3 8 [ &.3 q [ &.5.0XM.( e :./ 3.c.8.4 ;.f.qX6XOX;X#XA.9 A nXS O O + i j A fXQ C N N d d s g j b m m c m M c g g ",
"2  .=., 6.4 X.l.;.@.[ *.` q  .j.; 3.N.@.-.y.#.0Xk.{ 5 j.l.nX4XR 9XR P N N a O & * + i j Z D cXD N g g h g g g k z z z m S m h h ",
"1  . .` j.:.X.q.r.5.5.s.9.` *.B.g.; '  .1.N.q.' < ) X.7 ) eXbXW gXfXW B N N & * * O + i a d S D l j s j l j g g k k k M M m l l ",
"4.q.' : e.w.-.1 [ &.3 O.%.&.x %.eX' $.+.( o.t ; O.9. .: | $.CXfXgXfXW 0 0 N & + i + O & * d d d S k k p h h j h s j f k m z s g ",
"f.q.w 1 ` :...} | ) ) } o.o.{ ^ ` 5 p.0Xj.( : @.l.8._ :.k.$.PXD fX! 8XB 0 * O i & & & f x k s s m m b b j h h f f f s s k f a a ",
"+. . .l. .5 w l.` %.s.>.3 O.9.;.:.t ; 7.0X2./ 6.$.q , q.s.q DXfXB D fXZ d & & & & & + j M p i m a b n n k l h f l h s s g a a g "
};
