/* XPM */
static char *f9192a9c99c14b53f1ab99bf44d760a69OvybCYNUuwmkyzn[] = {
/* columns rows colors chars-per-pixel */
"64 64 244 2 ",
"   c #30291E",
".  c #3B3627",
"X  c #343129",
"o  c #541B35",
"O  c #463828",
"+  c #483033",
"@  c #71313B",
"#  c #2C6C1B",
"$  c #38751C",
"%  c #3C4734",
"&  c #1C7532",
"*  c #336B28",
"=  c #277825",
"-  c #2E772E",
";  c #327625",
":  c #387626",
">  c #327A26",
",  c #3B7A24",
"<  c #38772E",
"1  c #387A2A",
"2  c #2A7935",
"3  c #327C32",
"4  c #387D32",
"5  c #327E38",
"6  c #387F38",
"7  c #44791C",
"8  c #51422D",
"9  c #464838",
"0  c #584A37",
"q  c #45523D",
"w  c #654B36",
"e  c #6D5339",
"r  c #72573B",
"t  c #447926",
"y  c #407D2A",
"u  c #407E33",
"i  c #497D35",
"p  c #527A38",
"a  c #5A3242",
"s  c #78284C",
"d  c #355348",
"f  c #156846",
"g  c #367E40",
"h  c #3B5674",
"j  c #4B5844",
"k  c #4F504F",
"l  c #575846",
"z  c #7C5E41",
"x  c #6D5252",
"c  c #4A6C48",
"v  c #54664A",
"b  c #587A45",
"n  c #576C51",
"m  c #597856",
"M  c #706F58",
"N  c #515173",
"B  c #755070",
"V  c #65627F",
"C  c #8D172F",
"Z  c #88253E",
"A  c #902F54",
"S  c #98395A",
"D  c #A23159",
"F  c #912D65",
"G  c #9C3A65",
"H  c #A83868",
"J  c #B03073",
"K  c #B53471",
"L  c #BB3577",
"P  c #C52E7B",
"I  c #C3327B",
"U  c #C9327F",
"Y  c #904C54",
"T  c #955855",
"R  c #896748",
"E  c #936E4D",
"W  c #947549",
"Q  c #996754",
"!  c #877058",
"~  c #9D7653",
"^  c #A27154",
"/  c #A37A56",
"(  c #934E70",
")  c #A55664",
"_  c #A74B75",
"`  c #B7487A",
"'  c #A75579",
"]  c #B6517A",
"[  c #946768",
"{  c #897863",
"}  c #937A6B",
"|  c #906970",
" . c #AA6F77",
".. c #C2487E",
"X. c #2F842C",
"o. c #2A8633",
"O. c #388332",
"+. c #368834",
"@. c #328438",
"#. c #388438",
"$. c #388C38",
"%. c #45822A",
"&. c #558627",
"*. c #408332",
"=. c #498432",
"-. c #4B8A32",
";. c #428538",
":. c #498638",
">. c #428B38",
",. c #498B3B",
"<. c #588C34",
"1. c #518538",
"2. c #518C3B",
"3. c #44913C",
"4. c #59933A",
"5. c #628C38",
"6. c #629538",
"7. c #2E8440",
"8. c #368845",
"9. c #3B8C40",
"0. c #3A9345",
"q. c #428641",
"w. c #498640",
"e. c #428C40",
"r. c #4B8D40",
"t. c #4C8749",
"y. c #418D4A",
"u. c #4C8E4A",
"i. c #538742",
"p. c #538E40",
"a. c #5C8C44",
"s. c #538E49",
"d. c #429240",
"f. c #4B9342",
"g. c #46974A",
"h. c #4B9349",
"j. c #539342",
"k. c #5C9442",
"l. c #5B9B44",
"z. c #539549",
"x. c #5C964B",
"c. c #559A4B",
"v. c #5C9B4B",
"b. c #5A8657",
"n. c #4A9452",
"m. c #539952",
"M. c #5C9D54",
"N. c #569859",
"B. c #638F49",
"V. c #659748",
"C. c #639C4B",
"Z. c #648759",
"A. c #619E55",
"S. c #689959",
"D. c #759A57",
"F. c #5AA24C",
"G. c #5CA255",
"H. c #59A557",
"J. c #66A24A",
"K. c #67A658",
"L. c #63A45C",
"P. c #6AA65C",
"I. c #77AC54",
"U. c #75A959",
"Y. c #6E8864",
"T. c #669764",
"R. c #739B69",
"E. c #5FAA69",
"W. c #6CA662",
"Q. c #69AC65",
"!. c #77AB67",
"~. c #78B467",
"^. c #72B670",
"/. c #9A8546",
"(. c #AF855B",
"). c #98856E",
"_. c #B7916B",
"`. c #A48A77",
"'. c #AA967B",
"]. c #AC947C",
"[. c #87AC6C",
"{. c #336A89",
"}. c #34718E",
"|. c #CC3381",
" X c #D33387",
".X c #D53185",
"XX c #D73588",
"oX c #DB3C8C",
"OX c #8D5180",
"+X c #BA4D84",
"@X c #A75681",
"#X c #B75282",
"$X c #977289",
"%X c #B16E88",
"&X c #A87686",
"*X c #C54D84",
"=X c #CC4F8B",
"-X c #D64A8D",
";X c #C75188",
":X c #D3518E",
">X c #DE4390",
",X c #D45291",
"<X c #DC5494",
"1X c #DA5995",
"2X c #E34995",
"3X c #E44A96",
"4X c #E4559A",
"5X c #EA559D",
"6X c #E3589A",
"7X c #EB599E",
"8X c #C76992",
"9X c #C77799",
"0X c #ED57A0",
"qX c #EE5AA0",
"wX c #F05BA2",
"eX c #CC7AA1",
"rX c #D579A2",
"tX c #ED62A4",
"yX c #ED6BA8",
"uX c #EC76AD",
"iX c #F173AE",
"pX c #F076AF",
"aX c #9A8E94",
"sX c #AE918A",
"dX c #A8A69B",
"fX c #C38399",
"gX c #CBB392",
"hX c #D886AA",
"jX c #D791B0",
"kX c #E283AF",
"lX c #E587B2",
"zX c #ED85B5",
"xX c #EF88B7",
"cX c #EF8CB9",
"vX c #F186B7",
"bX c #F18AB9",
"nX c #EC95BC",
"mX c #F193BE",
"MX c #EF99C0",
"NX c #F29BC2",
"BX c #F698C2",
"VX c #EFA3C5",
"CX c #F2A2C5",
"ZX c #F9A9CB",
/* pixels */
"4.I.C.y a.P.4 u ~.6 M.$.3 m.4 x.;.: r.P.j.4 r.A.g.O.;.6 w.#.z.L.O.3 d.>.j.v.1 - =.O.$.@.- G.[.3.-.P.K.t a.W.#.b ^.u A.#.- M.u z.",
"X.-.P.2.u V.W.;.-.1 P.c.c.W.r.p.:.h.>.r.< r.>.r.V.$.*.,.C.:.=.t e.3 1 ; ,.M.f.w.I.3.$.O.y.~.v.4 X.,.P.a.6 M.W.w.1.4 W.c.z.Q.r.p.",
"#.e.j.,.S.G.P.;.=.C.Q.,.6 *.u :.L.O.# c.*.z.;.*.O.%.4.k.C.u %.=.H.O.>.:.*.*.;.u.-.O.2.= :.B.< j.#.e.z.,.P.V.W.*.=.B.U.,.4 *.: =.",
"e.>.#.:.!.:.z.u k.U.v.O.1 *.p.V.v.; >.~.O.w.c.1 1 1 p.f.z.4 ,.v.M.5 ,.K.x.> # #.=.%.F.3.:.a.2.~.d.;.O.;.~.*.s.u V.I.x.4 *.1 2.J.",
"$.= z.h.>.# P.u V.C.u *.v.s.2.a.> j.[.G.4 < v.4 d.@.5 5 y.6 y.e.4 ; : k.v.:.O.;.K.-.>.F.2.a.L.x.#.= h.z.;.# P.u C.x.1 ,.M.,.2.k.",
"r.M.P.;.q.3.Q.;.-.-.*.x.z.u *.k.3 c.H.3 G.*.;.z.9.$.y.@.#.6 h.s.i.T.S.,.u *.r.z.v.> = -.y i x.= r.M.P.#.>.f.W.;.1.-.O.c.c.1 %.j.",
"V.~.S.; v.P.f.r.%.1 r.m.q.u z.~.Q.#.; j.~.,.#.c.< j.R.m m n l q l l 0 j m Y.b.T.X.3 >.*.i a.t.2 V.[.C.: x.Q.u.u.=.4 r.m.e.#.c.~.",
"5.%.<.%.1 >.< ,.K.4 #.9.#.;.#.:.[.; z.^.j.4 c.T.v X + M ).{ { { ].].].`.{ M ! l % m H.*.V.P.#.8.5.i ,.*.5 ,.< u.K.*.;.#.5 ,.$.+.",
"5.%.%.C.=.-.,.L.6.5 9.4.&.Q.^.: :.$.i.2.o.T.k s %XrXrX9X&X| | | [ [ [ ( ) [ [ `.! l q t O.u.M.4.-.*., J.t 1.=.U.<.O.8.4.t Q.Q.1 ",
"<.4.4.V.4.2.-.=.O.=.K.A.u i.A.w.p ,.o.o.9 + %XcXbXNXnXMXnXlXhXrXrXlXzXuXyXqX<X_ x { ).9 c 5 w., -.j.k.x.j.4.1.1.;.2.C.Q.O.k.M.h.",
";.c.z.*.,.,.,.-.o.&.<.0.5 7 &.8.n.R.b v [ rXMXVXVXVXVXVXVXVXMXNXCXNXNX' S kXiXqX=X( } gXM % j.2.;.j.M.< j.u 1.r.2 &.&.9.& t &.7.",
"- ;.q.> j.1 =.K.q.-.t O.9.1 ,.N.= p ].`.9XnXVXVXnXmXcXcXxXxXMXzXcXmXlXA S lXxXpX0X5X` Y '.'.v A.- ;.r.; z.: >.A.0.=.t $.@.=.,.N.",
"@.O.>.#.L.,.-.j.4.g.$.V.k.8.y.[.v ).`.9XnXVXCXbXxXxXxXkXMXvXMXMXxXxXzXZ ) zXxXxXiX7X7X-XD [ { % > ;.#.;.A.u.;.h.l.h.h.k.V.8.9.~.",
"h.h.;.; z.v.,.: <.9.7.6.6.9.5 `.`.[ 9XbXCXCXnXxXxXxXrX$X&XrXpXzXxXxXvX .8XvXxXxXxXiXqX7X3XU H + c x.4 6 r.H.#.> &.@.7.&.6.@.7.<.",
"v.k.O.1 4 ,.;.>.=.O.#.*.i * x %X%XkXNXVXVXnXxXxXzXxXeXaXdXaX%XzXvXxXxXcXvXxXbXrX[ hXuXyX7X5X>XU s q u 4 4 r.;.;.:.O.#.4 p.;.w.1 ",
"-.=.-.K.*.4 ;.H.$.4.J.y.k 9XlXmXCXVXVXNXbXxXxXxXzXuXtX<X#X$X( qXyXyXpXpXpXpXpX9X/. .vXvXpXyXqX5XoXF j x.,.> *.G.+.<.I.8.#.7 V.n.",
"8.2 g.p.$ 4.U.<.X.$.c [ cXMXnXfXjXMXMXzXvXvXzXiX4Xa #XwXwX0X4X0X0XqXqXqX0XwXtX6XW ~ zXxXxXxXyX7X0X>Xs m $ k.U.:.3 8.q.1 x.V.l., ",
"9.2 q.j.u u 2.=.0.c v nXCXNX$X}.}.V 8XMX%X8XyX0X+Xf ( wXqXqXqX0XqXqXqXqXqX1X=XwX] ] tXyXuXzXxXyXwX5XI + i.*.2.=.y.- 4 1 2.2.4 4.",
"5 M.L.2.*.,.:.;.- % hXCXmXbXeX$X$XV 9XuX! ) 0X0XB f +XwXqX=X( 0X0XqXqXqX0X@XaX+XwXwXqXqX7XtXiXuXqX7X>Xo m ;.r.*.- :.P.,.< z.:.Q.",
"- P.L.*.,.M.u.#.m ( CXnXxXxXxXbXMXuXMXrX/.[ 0XwX( x 0XwX4XV N 3XqXwX;X_ 0X#XdX$X,XwXqX7X7X7XH A 6XqXoXS X R.u.#.,.z.x.O.;.~.r.y.",
">.,.: : v.x.6 #.k eXCXxXxXxXcXcXbXbXbXuX[ /.:XqX0X4X2XoX` }.F oX0X+Xd k 5X0X+XaX] qXqXqXqX` C D tX7X>XL x % u.5 j.,.# *.p.v.5 2 ",
"4 ,.,.=.:.,.;.N.. nXNXxXxXcXeXk | uXzXyX;X] 5X7X0XoXXX XF {.J  X|.d f @XwX0X0X_ +XwXwXwXqXG Z 3XqXqX3X.XS   n #.1 4.O.:.*.w.s.u.",
"4 h.Q.K.< :.M.m @ jXMXcXxXzXrXk f N 1XqXqXwX5X>X X.X.X XJ F H G F + F XX2X5XqX0XwX+XOX#X,X=X:XqXqXqX7XoXK e O Z.O.f.>.; s.!.L.q.",
"m.- j.W.j.,.x.n B lXMXcXuXtXqX,X( k =XwX7X5XoX.X.XJ Y Y T [ / / (.Q T S G L >X0XwX( }.{.h +XqXqXqXqXqX3X.XH w q 0.5 G.*.x.V.4 i ",
"[.G.= i.t - 1 j } hXnXpXtX0X0XqX7X7X7X:X6X2X X XJ R R e 0 O 8 9 9 O e z R ^ H 5XqX<X=X+X@X,X0X0X,X:XqX7X>X.XY . R.,.d.o.o.$.; J.",
"<.>.@.=.A.+.S.9 } 9XMXuXqXqXqXqX7X7X] $X] >X XJ T R O % T.R.N.u.S.T.m X O (.~ *XqXqXwXqXwXwX0X0XT Q 7XqX7XoXL @ j 1 ; ;.M.r.1 ,.",
"t d.3.r.W.9.T.q { %XbXtX0XqXqXqXwX=XaXdXL .XJ Q (.w n g.O.a.$.w.4.>.+.N.j e (.) qX6X;X5XwXqXqX0X/ ^ 5XqX7X3X.XY O s.4 L.!.i.=.x.",
"i H.7.s.s.9.c ).sX%XpXwXqXqXqXqX<X| aX*XoXP Y (.E % !.h.6 i.+.,.x.2.5 - A.% R T ,X#Xd l ,X0XqX<XR ) wX7X7X2X.XY 8 T.b D.R.i g.M.",
"i m.= 4 ,.9.q '.).rXwX,X+X0XqXqX4X@X*X5XoXH / E 8 m B.O.#.V.9.:.<.M.@.4 1 B.. Q ] 7XB f d :XqXqX,X4XqXqX7XoXI Q 0 N.= b s.6 e.@.",
":.$.2 < A.n.. ).#X:XB {.N ,XwX0X0X0XwX7XoXH ~ R . u.2.= ; D.f.1.7 j.3 f.;.4.v z ) 6X7X` ( <XwXqXwXwXqXqX7XXXH ^ O m.5 q.O.4 >.@.",
"V.$.O.i.S.b.l  .6X( }.B =X0XqXqX0X0XqXqX3XJ R e l 0.V.O.= a.$.a.t *.5 g.j.4.R.8 ^ ..qXqXwX3X` ,XqXqXqXqX5XXXL Q   B.z.x.O.< >.l.",
"V.;.= V.i.N.l  .7X=X@X0X0XqXqXwXwXqXqXqX0X|.T r Y.+.B.;.$.B.$.4.I.,.>.>.4.$ T.8 gX%XqXqX7X@XdX] qXqXqX7X5XXXK / O Z.j.h.#.*.-.V.",
"a.u p.:.# S.l  .5XwXwX7X<X=X;X1X7XqXwXwX5X|.T r Y.h.q.#.#.$.d.> q.!.b # m.o.m { gXfXyXqX] dX$X<XqXqXqXqX5X.XK E r m -.= >.f.,.f.",
"#.>.z.e.:.R.0 T -XwX7X4X( dXaXB 4X..D L 4X|.Q w c *.;.w.6 - #.;.6 u i A.!.5 v ].sXnXtX-X| $X,XqXwXwXqXqX3X.XP T r Z.K.>.>.;.;.>.",
"#.G.h.>.h.M.9 Q H 3X5X7X] &X' ;X7X` Z C D L sX].. S.x.u u s.x.>.o.> h.P.M.x.9 ].fXCXtX7X=X<XwX0X_ K 4XqX3X.X.XS O S.z.4 f.c.r.#.",
"4 $.O.4 q.z.9 / Y P 2X5X7X5XqXqX7X7X1XH H |.[ gXk !.x.< :.P.A.u e.>.>.,.< v M sXhXCXtX7XwXqXqXqXA C D 4X5X.X.XJ X x.>.; ,.M.x.;.",
",.< < :.:.x.v R / S .X2X6X,X<X6X7XqXqXqXwX7X_ ].{ v >.;.m.f.- 6 U.x.:.f.R.X ].sXnXCX1X:X4XqXqXqX5XH C ..qX>X.XL + c.v.*.;.#.z.#.",
"P.:.i.V.,.i.Y.8 W T P U T /.W ] qXqXqXqXwXtXlX .].x j W.S.y = o.B.K.r.T.9 M `.%XCXCXQ /.E +XwXqXwX5X=X5XqX2X.XL k J.v.f.f.;.r.> ",
"j.#.,.z.;.,.R.. E Q P .XH ) ) :XqXqXqXqXwX7XiXBXsXsX{ . n R.N.L.Z.T.n . ! gX].rXZXZX8X) Q *XwX0XqX7XwX5X3XXXXXA n h.$.*.z.w.z.- ",
"#.O.#.;.O.O.O.9 R ~ H .XoX0XwXwXqXqXqX7X7XwXwXiXnX} `.sXM l k 0 0 x { ].sX`.9XmXBXiX0XwX,X,X0XwX7XwX5XoXU XXJ O L.j.O.> *.; r.>.",
"4.C.=.j.,.;.J.Z.w _.T K oX0XwX4X=X7XqXqXqXqX,X..rXhX%X . . .'.gXgXgXgX9XlXnXbXyXwXwXwX5XV N <X0X0XwX>XU U J + Z.- #.y.>.O.y *.-.",
"k.-.u ;.:.,.x.D.O ~ ~ Y XX5XwXB N 4XqXqXqX*XC C @ nXBXBXmXnX9X&XsX&XhXZXZXxXtXwX*X( 5XwX( {.,XwX0X0XXX.XU Y O S.h.#.e.M.e.,.l.v.",
"K.p.x.6 *.z.y :.l e E Y .X5X+X{.( qXqX5X] F H L =XbXZXZXZXZXZXNXnXCXZXZXpXtXqX7Xk d 4XwX+X{.=XqXwX5X.XXXH z . a.z.; u M.z.#.>.>.",
":.=.Q.*.;.W.*.v.R.O / T .XoXB {.=XwX4X( f x wXqX0X<XuXyXyXyXzXNXfXfXNXuXqXqXqX=Xf x 0XwX=XB ,XqX5X2XXXU Y r c a.x.*.: ;.r.6 = O.",
"6 *.~.:.s.[.#.2.W.j E Q P .XJ _ 7XwX( f k ,XqXqX#X| <X0XqX7X7X` C S tX7XwXwXwX=Xd +XqXqXqX5X7X5XoXXXU Y / O N.:.P.!.*.; z.e.3 c.",
"w.u.M.*.x.Q.4 ; v.R.O / G  X.XoX4XqX.._ 6XqX0XqX@XdX+X0XqXqX1XC A <XwX..' :X6X7X;X4XqXqXqXqX5XXXP D T ~ O Y.e.- z.W.>.; G.c.- h.",
"#.w., *.K.j.9.h.6 w.q R Q H U .X.X>X5X5X:XT ] qX:X} ' qXqXqX6XH -XwXwX] aXaX%X=XqXqXqXqXqXqX>XI Y / / O Y.f.,.d.;.>.#.>.G.f.: $.",
"q.c.: 2.l.# >.Q.m.e.s.X / ~ Y L .X.X.XK W /.] qX7X=X:XqX7X7X:XqXwXwX7X5X] $XaX' 0XqXqXqXqX5XXXG z ~ e n l.= i E.N.@.#.z.,.=.,.4.",
"4.~.K.7 ,.S.4 ;.~.< K.b.  e R T D |..XH T ..qXqXqXwXqXqXwX*XZ =XwXwXqXqXqX4X=X3XqX7XwX5X0XoX|.T W R 9 2.2.L.6 ;.!.=.L.q.; m.6 x.",
"y -.P.,.4 M.W.,.x.i W.z.R.  z (.~ S .XXX4XtX7XqX7XqXqX7XwX..C I wX.._ 7X7XqXqXwX3X2X2X2XXX.XJ ~ ~   [.,.*.M.W.:.1.u P.m.z.Q.,.,.",
"O.;.j.,.L.M.P.:.y V.!.:.u Z.O (._.Q L  XoX5X7XqX7XwXqXqXwXH C :XqX^ E 3XwX7XwX>XXX.X.X.X.X.XH /.w n M.>.L.M.W.*.1.C.P.w.1 :.t O.",
"e.;.#.>.~.:.z.u V.U.C.4 4 ;.m O / / G  X.XXX3X5X5X5X5X7X5X:X` 7X-X/.^ qXqX7X3XXX.X.X.X.X.X|.A 0 j u.#.;.!.*.z.u V.U.V.1 *.u 2.C.",
"8.: h.c.,.# P.6 C.J.O.w.v.j.2.Y.. z Y |..X.X.X.XXXXXXXoX2X3XwXqX<XT =X5X5XoXU XX.X.XXX.XJ o   m +.= h.z.>.# W.u C.V.u ,.v.,.-.l.",
">.M.Q.-.r.w.P.u y *.4 c.j.,.-.C.b.j   A .X.X.X.X.X.X.X X.X.XXX2X3X5X3XoX.X.XXXU U K A o   v z.= e.x.P.*.w.r.W.O.*.=.*.c.z.1 O.x.",
"v.~.C.; v.P.r.q.,.O.q.G.O.6 ,.!.Q.$.b.. F .XXX.XU I K H H H K U U XX.XU .X.X.XI s . X m 4 2.r.2 x.~.C.; M.P.,.r.u 1 f.m.q.#.c.~.",
"4.t <.*.t ,.< r.G.O.= y.3 ,.*.2.[.; z.dXk o s o @ R E / / ~ E T K .X.XXXU XXL o   m E.O.j.!.@.7.4.%.5.*.u ,.< :.L.*.#.#.#.3.>.*.",
"<.:.*.C.=.y 1.D.6.@.8.<.&.Q.^.; ,.$.1.p 0.Q.[.Y.v 9 9 8 0 e E E w A P  X|.F + m S.K.<.y 6 u.M.&.4.%.*.C.=.i &.U.V.> $.a.1.H.^.< ",
"2.4.x.v.j.k.:.-.>.-.K.G.;.j.K.9.1.:.o.o.B.!.2.; j.N.u.t.Z.n j j m j + a + k ^.- u ,.%.,.q.g :.t :.j.v.v.<.a.:.1.>.,.K.G.*.j.P.f.",
"-.V.v.*.,.,.,.2.2 7 &.8.2 t &.8.g.[.W.o.i t.o.a.U.j.5 ;.v.,.>.H.U.s.M.S.S.s.s.6 v.4.:.v.u.u i.-.$.c.v.*.w.,.,.i.X.t 1.$.= t 1.$.",
"< ;.;.> h.3 >.L.d.-.%.e.#.y ;.N.= 2.[.p.:.n.3.[.J.u - G.K., < E.B.i m.G.w.u < u.U.3.2.G.w.w.A.x.> >.q.> a.4 ;.M.f.-.=.#.;.u ,.m.",
"< ;.;.#.G.r.:.z.C.g.d.V.k.#.9.~.D.= $.*.i.[.z.$.$ *.>.#.*.=.*.9.*.,.L.;.< x.q.$.4.t $.d.u 1.j.;.< ;.>.#.L.r.;.z.v.f.3.V.B.#.q.~.",
"s.z.$.; c.M.q.< &.7.2 5.6.8.g 4.[.+.j.2.@.w.i = <.x.;.= *.l.2.3 =.,.h.O.s.!.s.= 6.+.9.2 : a.p.@.z.z.;.- c.x.q.< :.X.X.V.x.o.X.a.",
"A.B.6 < O.r.w.=.-.O.O.*.,.,.;.< O.O.B.[.F.o.; 2.K.j.#.r.C.4.,.m.k.1 X.4.P.L.O.3 6.,.8.o.=.V.j.9.M.x.u 4 =.r.:.;.=.O.#.*.,.e.;.4 ",
"1.O.:.L.;.4 u A.$.6.V.y.2 1.k.y.,.p ; g.[.i.X.f.6.1 1 z.V.t ; c.C.,.> f.x.t 5 M.5.$.8.@.V.D.t 2 ,.4 =.K.:.1 O.K.X.V.S.>.= i a.d."
};
