/* XPM */
static char *ce99f116d9304d23f932a5f22875e8bdKq4zcBwivIdeFF3r[] = {
/* columns rows colors chars-per-pixel */
"64 64 230 2 ",
"   c #030303",
".  c #0B0A06",
"X  c #130E05",
"o  c #120E0A",
"O  c #161103",
"+  c #1A1408",
"@  c #0E0F10",
"#  c #131313",
"$  c #1A1A18",
"%  c #241B03",
"&  c #291F03",
"*  c #231A13",
"=  c #182B14",
"-  c #2C2103",
";  c #372904",
":  c #2C2619",
">  c #1E2123",
",  c #242626",
"<  c #2D3229",
"1  c #343737",
"2  c #483604",
"3  c #523E05",
"4  c #493728",
"5  c #533E2C",
"6  c #35511B",
"7  c #2A6A16",
"8  c #2C6D1C",
"9  c #306D1A",
"0  c #38751C",
"q  c #344E2E",
"w  c #325A29",
"e  c #1C7532",
"r  c #286B23",
"t  c #356828",
"y  c #247622",
"u  c #2A7526",
"i  c #2A7922",
"p  c #2E772E",
"a  c #257C28",
"s  c #327624",
"d  c #387626",
"f  c #327A26",
"g  c #3D7A22",
"h  c #38772E",
"j  c #387A2A",
"k  c #376634",
"l  c #2B7933",
"z  c #267A38",
"x  c #397533",
"c  c #337B32",
"v  c #387D32",
"b  c #327E38",
"n  c #387F38",
"m  c #594406",
"M  c #4A5416",
"N  c #674D05",
"B  c #6E5308",
"V  c #755807",
"C  c #48761B",
"Z  c #6C6B16",
"A  c #534C2E",
"S  c #644C37",
"D  c #6D523A",
"F  c #74583E",
"G  c #4A6A27",
"H  c #457827",
"J  c #407D2A",
"K  c #5B7628",
"L  c #407E33",
"P  c #497C32",
"I  c #477738",
"U  c #497E38",
"Y  c #547C39",
"T  c #6E6F21",
"R  c #3C4144",
"E  c #367E40",
"W  c #484B4C",
"Q  c #4D5354",
"!  c #545B5B",
"~  c #7B5C41",
"^  c #597C43",
"/  c #52764E",
"(  c #756F4E",
")  c #5B6365",
"_  c #676C6E",
"`  c #6C7576",
"'  c #71797A",
"]  c #886609",
"[  c #936E08",
"{  c #97720A",
"}  c #9F780A",
"|  c #907B14",
" . c #A57B0A",
".. c #876648",
"X. c #916D4D",
"o. c #95704F",
"O. c #9A7552",
"+. c #A37B57",
"@. c #A57C58",
"#. c #27822A",
"$. c #35822A",
"%. c #2A8533",
"&. c #328532",
"*. c #388332",
"=. c #3D8A35",
"-. c #328438",
";. c #388438",
":. c #328C38",
">. c #388C38",
",. c #38913B",
"<. c #728B1F",
"1. c #46832A",
"2. c #548626",
"3. c #56882A",
"4. c #408332",
"5. c #498432",
"6. c #4B8A32",
"7. c #428538",
"8. c #498638",
"9. c #428B38",
"0. c #498B3B",
"q. c #538932",
"w. c #5C8E32",
"e. c #518538",
"r. c #518C3B",
"t. c #5C8E38",
"y. c #45913C",
"u. c #559237",
"i. c #5C933B",
"p. c #648D3A",
"a. c #629538",
"s. c #2E8440",
"d. c #328747",
"f. c #388540",
"g. c #3B8C40",
"h. c #378B48",
"j. c #3D914B",
"k. c #428640",
"l. c #498640",
"z. c #428C40",
"x. c #4B8D40",
"c. c #418D4A",
"v. c #4B8E49",
"b. c #538642",
"n. c #578445",
"m. c #538E40",
"M. c #5C8C44",
"N. c #538E49",
"B. c #429240",
"V. c #4B9342",
"C. c #46974A",
"Z. c #4B9349",
"A. c #539342",
"S. c #5C9442",
"D. c #539C42",
"F. c #5F9A45",
"G. c #539549",
"H. c #5C964C",
"J. c #559A4B",
"K. c #5C9B4B",
"L. c #4C9454",
"P. c #539953",
"I. c #5C9D54",
"U. c #539E5C",
"Y. c #6C8E49",
"T. c #659944",
"R. c #63964C",
"E. c #699649",
"W. c #639C4B",
"Q. c #619E55",
"!. c #6B9C57",
"~. c #769F59",
"^. c #58A24B",
"/. c #5CA255",
"(. c #5AA558",
"). c #67A24A",
"_. c #63A355",
"`. c #6AA453",
"'. c #63A45C",
"]. c #6AA65C",
"[. c #63AA5D",
"{. c #6AAA5D",
"}. c #77AC54",
"|. c #75AA59",
" X c #70826E",
".X c #709D60",
"XX c #6CA662",
"oX c #65AC67",
"OX c #6CAC62",
"+X c #77AA64",
"@X c #75AF68",
"#X c #68B46D",
"$X c #78B467",
"%X c #7EBB74",
"&X c #968816",
"*X c #AD820B",
"=X c #B7890C",
"-X c #B19214",
";X c #B89B15",
":X c #C7960C",
">X c #CE9E0F",
",X c #D6A10E",
"<X c #DCA50E",
"1X c #DFA80E",
"2X c #D7A611",
"3X c #E3AA0E",
"4X c #E8AF0F",
"5X c #ECB20F",
"6X c #F3B70F",
"7X c #F5B80F",
"8X c #E5AF11",
"9X c #F6BA10",
"0X c #FEBF10",
"qX c #FFC110",
"wX c #829F5A",
"eX c #84A766",
"rX c #87B770",
"tX c #88C17A",
"yX c #7C8687",
"uX c #879091",
"iX c #8C9697",
"pX c #9AA5A6",
"aX c #AAB6B6",
"sX c #B1BDBD",
"dX c #B9C5C5",
"fX c #C7D5D5",
"gX c #D0DEDE",
"hX c #D6E5E5",
"jX c #D8E7E7",
"kX c #D9E9E9",
/* pixels */
"u.|.).J M.].v L $Xv I.>.c P.v H.7.s x.].A.v x.I.L.h v n l.;.G.'.;.c B.8.A.K.j p 5.*.,.-.p I.%X9.6.{.`.H M.XX;.^ #XL Q.;.p I.L G.",
"$.6.{.r.L W.XX7.6.h ].J.P.XXx.A.8.V.9.x.x x.9.x.E.7.7.0.W.8.5.H 9.c j s 0.I.V.l.`.V.y.c c.@XR.v $.8.{.M.L Q.XXl.e.v XXG.G.OXx.m.",
";.z.A.0.!.I.].7.5.W.OXx.v 4.L 5.'.L 8 J.=.G.7.4.4.1.A.S.W.L 1.1.(.;.9.0.*.7.7.v.q.*.V.i 8.R.d A.-.9.G.0.].R.XX7.5.R.XX0.v 4.j 5.",
"z.9.;.7.@X8.G.L S.|.K.$.j 4.m.R.I.s =.$X*.8.J.h j j m.V.G.v 0.H./.-.0._.R.s 8 ;.5.1.^.y.8.M.r.$XB.7.;.7.@X4.N.J T.}.F.L 4.j r.W.",
">.u G.Z.9.9 ].L T.W.L 4.H.N.m.M.d A.%XI.v h K.v B.&.-.b &X<X5X5X4X&Xf S.K.8.;.7._.6.9.^.b.M.XXH.;.u Z.G.7.8 ].L W.H.j 8.I.0.r.S.",
"x.I.{.7.k.x.OX7.6.6.4.H.G.4.4.S.f J.(.x /.4.7.G.g.g.-X0XqX0XqXqXqXqXqX:XJ 4.x.G.J.f i 6.j P G.u x.I.{.;.9.V.OXU e.5.=.J.J.j 1.A.",
"E.$XW.s K.[.x.x.=.j x.P.k.L G.$X'.v f 0.$X0.7.G.;X0XqX0XqX0X0X0X0X0X0XqX6X7.;.v.v v y.4.5.M.x.l E.+XW.f H.oXv.v.5.v x.P.z.;.J.@X",
"p.1.q.4.j 9.h l.`.v ;.g.;.7.L 9.tXd G.%XA.v p.qXqXqX0X0X0X0X0X0X0X0X0X0XqX9XH p ;.:.^.4.S.XX;.d.p.I r.7.v z.h v._.4.7.;.b z.=.=.",
"w.1.H W.5.5.0.'.a.b c.i.2.oX#XH 7.>.b.8.1.6 ] qX0X0X0X0X0X0X0X0X0X0X0X0X0XqX9XK Z.`.q.g ;.v.I.t.6.4.g _.g q.5.|.w.-.d.a.1.oX#XH ",
"q.i.S.T.u.A.6.5.4.5._.I.L r.Q.l.Y 0.p ;XqXm 2 9X0X0X0X0X0X0X0X0X0X0X0X0X0X0XqX9XK b.6.6.k.E l.g 6.A.S.H.A.M.e.e.7.r.W.[.*.A.I.v.",
"9.J.G.=.r.0.0.6.%.2.w.h.c H 2.d.C.Y.4XqXqX*XO :XqX0XqX0X0X0X0XqX0X0X0X0X0X0X0XqX7XK 6.F.v.f.G.r.7.A.I.j A.L e.x.z 2.2.h.e H 2.-.",
"p 7.k.f A.j 5._.k.5.H ;.f.J 6.U.a | qX0XqX5X} 3XqX0X0X0X0X0X0X0X0X0XqX0X0X0X0X0X0X5XH ^.8.l.I.K.p 7.x.s G.d 9.Q.y.5.H >.-.U 6.U.",
"n ;.9.;.'.8.6.A.i.C.y.T.S.f.c.+XY.; <X0X0XqXqXqX0X0X0X0X0X0X0X0X0X0X0X0X0X0X0X0X0XqX3Xd j e.G.n f 7.;.7.I.v.7.Z.F.Z.Z.S.T.f.j.$X",
"Z.Z.7.s G.K.0.d w.d.s.w.a.h.-.K :X& N qX0X0X0X0X0X0X0X0X0X0X0X0X0X0X0X0X0X0X0X0X0X0X0X:Xt w.m.-.G.H.v v x.(.;.f 3.-.s.3.i.-.b w.",
"K.S.4.j v 8.7.9.5.*.*.4.1.9.x *XqX:X*X0X0X0X0X0X0X0X0XqX0X0X0X0X0X0X0X0X0XqX0X0X0X0X0XqX] E.M.f.R.H.L v v x.7.9.6.*.7.j m.9.k.j ",
"6.5.6._.4.v =.(.:.i.).j.z P I <XqXqXqX0X0X0X0X0X0X0X0X0XqX0X0X0X0X0XqX0X0X0X0X0X0X0X0XqX6XG g z x.L m.H.0.f 4./.-.w.`.d.-.C R.L.",
"d.z C.m.0 i.|.q.u >.k.j H.i.G 4X0X0X0X0X0X0X0X0X0X0X0X0X0X0X0X0X0X0X0X0X0X0X0XqX0X0X0X0X9X] n.H.d.b Z.G.0 S.|.6.l f.k.j H.F.T.g ",
"c.l k.A.L L r.5.c.p ;.j m.m.w 8X0X0X0X0X0X0X0X0XqX0X0X0X0X0X0X0X0X0X0X0X0X0X0X0X0X0X0X0X0X:XXXoXc.b k.G.5.7.r.P c.l v j r.r.v A.",
"l I.oXr.7.8.8.7.u 9.OX6.s G.w 2X0X0X0X0X0X0XqX0X0X0X0X0X0XqX0X0X0X0X0XqX0X0X0X0X0X0X0X0X0X3XM H b '.oXr.5.0.x.7.p 9.].8.j G.9.oX",
"f {._.4.8.I.v.;.0.H.S.4.4.$Xk -X0X0X0X0X0X0X0X0X0X0X0X0X0X0X0X0X0X0X0X0X0X0X0X0X0XqX0XqXqXqXV I f OX].4.r.I.v.-.0.G.H.4.7.@Xx.v.",
"9.x.d d K.H.;.b G.x.s 4.0.I.k ] qX0X0XqX0X0X0X0X0X0X0X0X0X0XqXqXqXqXqXqXqXqX0X0X0XqXqX6X5X9X1XG 8.x.d g H.H.-.n D.8.7 4.m.H.b l ",
"v 0.0.8.8.0.7.>.s Z.4.4.v I / M 0X0X0X0X0X0X0XqX0X0X0X0XqXqX3X=X . .*X>X9XqXqX0X9X=XB ; - ; N B w x.m.*.0.0.7.;.j A.4.5.4.l.N.v.",
"v Z.OX_.j 8.H.7.b V.0.8 r.$Xn.w 4X0X0X0X0X0X0X0X0X0XqXqX1XB % # $ $ $ O 2 =XqX4XN # 1 ) ' _ R # < Z.OX_.j 0.K.9.c V.z.s N.@XQ.k.",
"P.p A.OXA.0.H.;.-.-.].4.H.R.L w =XqX0X0X0X0X0X0X0XqXqX,X; > ' aXfXdXdXiXR X ] 2 > iXfXjXkXkXgXpX1 r G.+XA.0.G.v :.-./.4.R.R.v U ",
"rX/.i e.H f f 8.'.;.Z.c v.n p n.T qXqXqX0X0X0X0X0XqX5X2 < sXhXkXhXhXhXhXfX`   $ aXkXjXhXhXhXhXhXdXA f 9.d i v k.W.8.B.%.%.>.s ).",
"e.9.&.U Q.&.V.S.m.x L n H.P.v k t 5XqX0X0X0X0X0X0XqX} # pXjXhXhXhXhXhXhXhXhX! , dXkXhXhXhXhXhXhXhXpXt ;.P.*.Z.G.A.j s 7.I.v.j 0.",
"H B.B.x.XXg.z.T.8.U 8.Q..XH.5.H.l -XqX0X0XqXqXqXqX7X2 W hXhXhXhXhXhXhXhXhXkXsX$ yXkXhXhXhXjXhXaXaXdXR j.oX0.m.S.8.L L I.+Xb.5.H.",
"U (.s.N.N.g.y M.A.l.L @XQ.0.9.`.s Z 0X0X0X}  .qXqX3X% yXjXhXhXfXfXhXhXhXhXhXhX1 ! hXhXhXhXjXsX# # sX' k.P.0.H r.V.x.^ ~..XU C.I.",
"P P.y ;.0.;.y b.G.*.u Z.7.k.4.9.x.=.2XqX7X2 - 3XqX,X+ pXhXjXsX1 > iXjXhXhXhXhXQ W hXhXhXhXkXdX$ # aXiXz k.7.t r.B.:.y ^ N.v c.&.",
"e.:.l h Q.b &.M.$.*.7.;.f 9.9.$.H.c.[ qX6X;   *XqX<X+ iXkXkXpX    ! hXhXhXhXhXW W hXhXhXhXhXhXaXaXhXuXw I.v =.m.*.*.-.7.n v 9.&.",
"T.:.*.b.!.b =.M.9.;._.0.c 7.0.D.8.l ; 5X5X- . ; 5X5X& ' kXhXfX` ! sXjXhXhXhXfX1 ` kXhXkXhXhXhXhXkXkX' k '.v 9.A.0.=.J.J.*.h 9.H.",
"E.7.y R.b.&.*.E.|.0 J.N.m.L L Q.b.z # [ 3X% N O } 0X2 Q hXhXhXkXhXhXhXhXhXhXaX@ ) dXfXfXdXfXfXgXkXhXR / v.9.;.r.~.J A.Z.;.4.8.E.",
"M.L A.8.8 r.+Xf 4.*.V.f 8.l.7.G.p !.  - *X% *XB & 3XV < fXhXhXhXhXhXhXhXjXhX) X + $ , , , , > 1 _ ` w J d A._.L 8.f 0.i 9.y.V.V.",
"n 9.G.z.8.H./.0.z.m.I.4.x.x.n L C.e.$   ; O :X<X% V =Xo uXjXkXhXhXhXhXkXhXuXX { ,X} { [ { [ [ B - . ) 7.=.K.I.9.y.6._.9.9.7.7.9.",
";./.Z.9.Z.9.a x A.0.x.h G.I.x.v 9.8.  $   X ,X0X .% >XV # ` dXgXhXhXhXdX' # V 7XqXqXqXqXqXqXqXqX<X-  X>.y.V.;.f V.0.D.v Z.J.0.;.",
"v =.*.v k.9.v y.v 7.8.s l.I.G.9.a ].].  o X =X7X7X>X7X5X] % $ 1 ! ) Q , O ] 7XqX0XqXqXqXqX0XqXqX7X6  X*.4.9.9.z.4.4.9.s 8.I.H.7.",
"0.h h 8.8.N.I.I.s r.I.L 7.n z.k.:.Q.n._ X . + m ,X0X0X0X0X<X .N 2 2 3 ] ,X0X0XqXqXqXqXqX0X0X0X0X>X6 j x.5.l.R.H.s V.H.*.7.*.G.;.",
"{.8.b.H.0.b.H.U 5.H.H.7.G.k.V.s C.7.e.& { :X*X- 3 7XqX0X0X0X0X0X0X7X0X0X5X:X*X .=X,X3X1X:X:X<X:X2 t r.`.n.5.r.8.*.D.K.V.V.7.x.f ",
"A.4.0.G.7.0.N.7.m.A.v j H.Z.Z.s &.e.eX*X5X=X<X*XX :XqX0X0X0X0X0X0X4X .m - O o o X + % % + O % X < L 8.G.l.8.x.0.y.V.9.1.G.l.G.p ",
";.;.;.7.*.*.*.;.8.M.4.d ;.y z.B.l.~.~.3Xm . ; =X+ *XqX0X0X0X0X3X] & o : A F ..X.~ D S D F ~ 5 o W x 9.f &.*.*.*.r.A.*.f ;.f 0.0.",
"u.W.8.A.0.7.).w.>.s z.G.v d r.8.S.0.=.<X3  .>X*XX :X0X0XqX0X .; o 4 ..+.+.+.@.+.@.+.@.@.@.@.@.~ + / %.P.r.#.wXu.l ;.c.9.4.J 4.6.",
"S.6.J 7.9.0.H.i.G.;.x.I.G.8.A.I.e.;.i *X9XqX3X; 2 5XqXqX0X[ O < ..+.+.+.+.+.+.+.+.+.+.@.+.+.+.@...* >.^ 9.9.i.6.Z.;.z.I.z.0.D.K.",
"`.m.H.L v J.g 8.0.L v G.I.7.v x.F.8.*.V.B N & ; :XqX0X0X*XX 5 O.+.+.+.+.+.+.+.+.+.+.+.+.+.+.+.+.+...R.v ;.Q.f t.J.u L I.G.*.9.9.",
"8.7.oX7.7.OX4.H.S.8.0 L V.;.r -.M.*.9._.5.@ 2 3X0X0X0X3X; : O.@.+.+.+.+.+.+.+.+.+.+.+.+.+.+.+.+.+.+.eX;.;.eX#.M.H.1.d 7.V.n u ;.",
"n 7.+X8.N.rX;.x.{.`.4.s v.9.;.Z.r.d i I.!.^ m 0X0X0XqX] o ..@.+.+.+.+.+.+.+.+.+.+.+.+.+.+.+.+.+.+.+.wX/ P.eX>.8.].+X*.s G.k.c J.",
"l.v.I.4.H.OXv r K._.x.v J.G.7.l.S.A.i s A.b.3 9X0XqX3X& 4 +.+.+.+.+.+.+.+.+.+.+.+.+.+.+.+.+.+.+.+.+.n.7.'.+Xk.p G.OX9.f /.J.p Z.",
";.l.g *.Q.A.z.G.;.l.7.9.H.x.v 4.S.{.*.y 8.h 2 0X0XqX=Xo ..@.+.+.+.+.+.+.+.+.+.+.+.+.+.+.+.+.+.+.+.+.I 5.Q.V.8.z.7.9.;.9./.V.d =.",
"z.J.d u.T.8 9.#XP.k.n 9.A.0.5.H.d A.j 4.+XI m 0X0X0X .o X.+.+.+.+.+.+.+.+.+.+.+.+.+.+.+.+.+.+.+.+.+.+.r.S.a P #XU.-.;.G.0.4.0.i.",
"i.$X`.C 0.!.v 7.$Xx Q.v n Z.7.H.9.f V.{.A.L Z qX0XqX] # O.+.+.+.@.5 5 @.+.+.+.+.+.+.+.+.+.+.+.+.+.+.+.@.+.'.j 7.@XU ].g.u P.v H.",
"J 6.[.0.v I.OXl.H.L {.G.P.Q.8.7.7.V.7.0.f I | qXqXqXV * O.+.+.@.S . 5 @.+.+.+.+.+.+.+.@.+.+.+.@.+.+.@.@.Y I.XX7.e.L ].P.G.XXx.8.",
";.7.A.0.].I.].8.J T.+X8.4.4.4.r._.*.8 J.*.b.;XqXqXqXV * O.+.@.O.*   * 5 ~ O.+.+.@.@.+.@.@.@.+.@.+.+.( 6.'.I.XX4.e.W.].l.v 8.g 7.",
"k.7.;.9.@X8.G.L a.+XQ.L v ;.r.T.I.j >.@Xl.I 9XqX0XqX] * o.+.+.X.+ 4 4 + . * 4 S ~ ....X.X...~ D 5 k ;.7.@X4.G.L E.|.i.L 4.L r.W.",
";.f Z.J.8.r ].v W.).4.l.K.A.r.i.f N.%XI.j K qX0X0XqX=XX F @.@.+.~ ..@.O.~ 5 * o o o o o X X q J.=.u Z.G.9.8 XXL W.R.L 0.K.0.6.D.",
"z.I.OX8.x.x.].L J 4.v J.G.8.5.W.x N.I.h I.-XqX0X0XqX5X2 : o.@.@.O.@.@.@.@.+.+.X...D D D S : x.y z.H.{.7.l.x.XX4.5.5.7.J.A.j 4.K.",
"K.$X`.s K.].x.k.0.*.7./.;.7.8.@XXXv h N.@X7X0X0X0X0XqX:X% : ..@.+.+.+.+.+.+.+.@.@.@...S q e.x.l T.$XW.s H.].x.l.v j V.P.7.;.G.$X",
"u.H q.1.H 9.h x./.&.a c.p z.4.r.rXs N.%Xw.qX0X0X0X0X0XqX=X; o 5 ..+.+.+.@.@.@.@.@.~ = *.A.@X-.s.i.1.t.4.L 0.h 9.'.4.;.;.;.z.9.=.",
"w.5.1.W.8.g e.~.a.b g.w.q.oX#Xs l.>.e.Y <.qX0X0X0X0X0X0X0X3X] & o : S ~ X.O.X...D : 6.J E v.Q.2.u.1.1.W.5.P q.}.E.f y.M.8.(.#XJ ",
"r.S.H.J.A.S.8.5.9.6._./.7.A.`.k.e.8.%.%.M.| 4XqX0X0X0X0X0X0X0X3X .m & + o # + o t r.1.0.k.E 7.H 0.A.H.K.t.M.8.e.9.8._./.4.A.].V.",
"5.H.K.7.0.0.8.m.z C 3.d.l H 2.d.C.eXOXr I 0.p  .4XqXqX0X0X0X0XqX9X0X3X=X} [  .[ W.r.6.K.v.L n.6.>.J.H.4.0.8.8.b.#.P e.>.y H e.>.",
"h 7.7.f Z.c 9.'.B.q.1.g.;.j 5.U.a n.+Xr.I c.l..Xt.] ,X0XqX0X0X0X0X0X0X0XqXqX0X;X|.0.y./.l.l.I.H.f 9.k.f N.v 7.Q.V.6.5.*.;.L 0.P.",
"h 7.7.;.(.x.9.G.F.Z.C.T.F.;.c.$X!.u =.=.b.+X^ %.Y x v G | <X0X0X0X0X0X0X0XqXqX&Xi.J >.B.L e.A.7.h 7.z.;.'.x.7.G.J.V.V.W.R.;.k.$X",
"N.G.>.s J.H.l.x 2.-.z w.a.d.E w.rX:.r.n.&.0.Y a H M.;.k I 8.K Z :X3X6X0XqXqXqX&Xw.;.g.l d M.m.-.G.G.7.s J.H.k.h e.$.#.M.R.&.#.M.",
"Q.H.L h ;.x.8.8.6.*.*.4.0.x.7.f &.U Y.eX(.&.f r.`.G.;.x.R.q./ v.Y 9 6 N ] { | G p.0.h.l 5.E.A.g.I.H.L v 4.0.8.7.1.;.=.4.0.k.7.v ",
"e.4.7.'.7.v L Q.g.a.E.c.z q.S.c.x.Y u C.eXm.#.V.i.J f G.T.9 = = W.# ! 1 $ o   b.Y >.h.f.W.E.g z x.L 5._.8.v 4._.&.T.!.9.a U M.B."
};
